<svg width="514" height="90" viewBox="0 0 514 90" fill="none" xmlns="http://www.w3.org/2000/svg">
<path d="M382 5H450.5V17.7H423.3V84.3H409.7V17.7H382V5ZM269 5V17.7H214V38.1H258.3V50.7H214V71.7H269V84.3H200.5V5H269.2H269ZM303.3 5H285.5L349.3 84.4H367.2L335.2 44.7L367.2 5.1H349.3L326.3 33.7L303.3 5.1V5ZM321.6 61.7L312.6 50.7L285.5 84.4H303.3L321.6 61.7Z" fill="black"/>
<path d="M201 84.3L137 5H120V84.3H133.6V22L183.8 84.3H201Z" fill="black"/>
<path d="M59.5256 32.7901C59.5256 35.0545 58.626 37.2262 57.0248 38.8274C55.4236 40.4287 53.2519 41.3282 50.9874 41.3282C48.723 41.3282 46.5513 40.4287 44.95 38.8274C43.3488 37.2262 42.4493 35.0545 42.4493 32.7901C42.4493 30.5256 43.3488 28.3539 44.95 26.7527C46.5513 25.1514 48.723 24.2519 50.9874 24.2519C53.2519 24.2519 55.4236 25.1514 57.0248 26.7527C58.626 28.3539 59.5256 30.5256 59.5256 32.7901Z" fill="#FFC131"/>
<path d="M36.6278 48.7021C31.9123 48.7021 28.0896 52.5247 28.0896 57.2402C28.0896 61.9557 31.9123 65.7784 36.6278 65.7784C41.3433 65.7784 45.166 61.9557 45.166 57.2402C45.166 52.5247 41.3433 48.7021 36.6278 48.7021Z" fill="#24C8DB"/>
<path fill-rule="evenodd" clip-rule="evenodd" d="M68.6847 60.1509C65.2533 62.3693 61.4353 63.9228 57.4299 64.7305C58.5907 61.421 58.9758 57.889 58.5554 54.4071C61.9515 53.2199 65.02 51.2491 67.5123 48.6546C70.0046 46.0601 71.8505 42.9149 72.9003 39.4738C73.9501 36.0327 74.1744 32.3927 73.5548 28.8489C72.9353 25.305 71.4894 21.9569 69.3344 19.0761C67.1794 16.1953 64.3759 13.8629 61.1512 12.2678C57.9265 10.6727 54.3714 9.85993 50.7739 9.89531C47.1764 9.9307 43.6379 10.8133 40.4452 12.4715C37.2525 14.1297 34.4955 16.5168 32.3975 19.4394C28.0532 19.9282 23.8257 21.1624 19.9008 23.0876C21.4524 18.0814 24.1881 13.5231 27.8761 9.79916C31.5641 6.07518 36.0955 3.29528 41.0864 1.6951C46.0772 0.094918 51.3803 -0.278365 56.5461 0.606892C61.7119 1.49215 66.5881 3.60985 70.7614 6.78047C74.9346 9.9511 78.2819 14.0812 80.5195 18.8206C82.7571 23.5601 83.8191 28.7691 83.6153 34.0063C83.4115 39.2434 81.948 44.3542 79.3489 48.9054C76.7499 53.4567 73.0917 57.3142 68.6847 60.1509ZM20.2889 29.0255L28.2837 29.9957C28.465 28.4518 28.8031 26.9304 29.2928 25.455C26.1304 26.1901 23.0956 27.3936 20.2889 29.0255Z" fill="#FFC131"/>
<path fill-rule="evenodd" clip-rule="evenodd" d="M18.8917 29.8792C22.3438 27.6382 26.189 26.0712 30.2242 25.2609C29.0036 28.5699 28.5653 32.1165 28.9435 35.6231C25.5591 36.8271 22.5055 38.8105 20.0294 41.4129C17.5533 44.0154 15.7243 47.1639 14.6901 50.6039C13.6558 54.044 13.4455 57.6791 14.076 61.2155C14.7065 64.7519 16.1602 68.0904 18.3196 70.961C20.479 73.8317 23.2835 76.1541 26.5064 77.7404C29.7293 79.3267 33.2802 80.1326 36.8722 80.0927C40.4641 80.0529 43.9963 79.1686 47.1833 77.5111C50.3702 75.8537 53.1225 73.4698 55.2177 70.5519C59.5597 70.0754 63.7871 68.8544 67.7145 66.9426C66.159 71.9436 63.4215 76.4961 59.7338 80.215C56.0461 83.9338 51.5167 86.7094 46.529 88.3069C41.5413 89.9043 36.2421 90.2766 31.0801 89.3922C25.918 88.5078 21.045 86.3927 16.8736 83.226C12.7021 80.0592 9.35503 75.9341 7.11561 71.1998C4.87619 66.4654 3.81036 61.2612 4.00835 56.0277C4.20634 50.7942 5.66232 45.6854 8.25304 41.1338C10.8438 36.5822 14.493 32.7217 18.8917 29.8792Z" fill="#24C8DB"/>
</svg>
